<svg width="42" height="34" viewBox="0 0 42 34" fill="none" xmlns="http://www.w3.org/2000/svg">
<path d="M19.6876 29.9723C18.8214 29.9723 17.9814 29.6846 17.2727 29.1354L10.0543 23.5385H6.56325C4.38462 23.5385 2.62596 21.7861 2.62596 19.6154V14.3846C2.62596 12.2138 4.38462 10.4615 6.56325 10.4615H10.0543L17.2727 4.8646C18.4801 3.94922 20.055 3.76614 21.42 4.44614C22.7849 5.09999 23.6249 6.45999 23.6249 7.97691V26.0492C23.6266 26.5649 23.5259 27.0758 23.3287 27.5526C23.1314 28.0293 22.8415 28.4625 22.4755 28.8271C22.1096 29.1917 21.6748 29.4806 21.1964 29.6772C20.7179 29.8737 20.2051 29.974 19.6876 29.9723ZM6.56325 13.0769C5.82829 13.0769 5.25082 13.6523 5.25082 14.3846V19.6154C5.25082 20.3477 5.82829 20.9231 6.56325 20.9231H10.5005C10.7893 20.9231 11.078 21.0277 11.3143 21.2108L18.9001 27.0692C19.2938 27.3831 19.8188 27.4354 20.2913 27.2C20.7638 26.9646 21.0262 26.5461 21.0262 26.0231V7.95076C21.0262 7.42768 20.7638 7.00922 20.2913 6.77384C20.0714 6.65972 19.8231 6.61136 19.5763 6.63456C19.3295 6.65776 19.0947 6.75154 18.9001 6.90461L11.3143 12.7631C11.0833 12.9477 10.7966 13.049 10.5005 13.0508H6.56325V13.0769ZM38.0616 18.3077H27.5622C26.8272 18.3077 26.2497 17.7323 26.2497 17C26.2497 16.2677 26.8272 15.6923 27.5622 15.6923H38.0616C38.7966 15.6923 39.374 16.2677 39.374 17C39.374 17.7323 38.7966 18.3077 38.0616 18.3077Z" fill="#A2A2A2"/>
</svg>
