<svg width="42" height="34" viewBox="0 0 42 34" fill="none" xmlns="http://www.w3.org/2000/svg">
<path d="M19.6876 30.0769C18.8214 30.0769 17.9814 29.7892 17.2727 29.24L10.0543 23.6431H6.56324C4.3846 23.6431 2.62595 21.8908 2.62595 19.72V14.4892C2.62595 12.3185 4.3846 10.5661 6.56324 10.5661H10.0543L17.2727 4.96922C18.4801 4.05383 20.055 3.87076 21.42 4.55076C22.7849 5.2046 23.6249 6.5646 23.6249 8.08153V26.1538C23.6266 26.6695 23.5259 27.1804 23.3287 27.6572C23.1314 28.1339 22.8415 28.5671 22.4755 28.9317C22.1096 29.2964 21.6748 29.5853 21.1963 29.7818C20.7179 29.9784 20.2051 30.0786 19.6876 30.0769ZM6.56324 13.1815C5.82828 13.1815 5.25081 13.7569 5.25081 14.4892V19.72C5.25081 20.4523 5.82828 21.0277 6.56324 21.0277H10.5005C10.7893 21.0277 11.078 21.1323 11.3142 21.3154L18.9001 27.1738C19.2938 27.4877 19.8188 27.54 20.2913 27.3046C20.7638 27.0692 21.0262 26.6508 21.0262 26.1277V8.08153C21.0262 7.55845 20.7638 7.13999 20.2913 6.9046C20.0714 6.79049 19.8231 6.74213 19.5763 6.76533C19.3295 6.78853 19.0947 6.88231 18.9001 7.03537L11.3142 12.8938C11.0833 13.0784 10.7966 13.1798 10.5005 13.1815H6.56324ZM32.8119 23.6431C32.0769 23.6431 31.4994 23.0677 31.4994 22.3354V11.8738C31.4994 11.1415 32.0769 10.5661 32.8119 10.5661C33.5468 10.5661 34.1243 11.1415 34.1243 11.8738V22.3354C34.1243 23.0677 33.5468 23.6431 32.8119 23.6431Z" fill="#A2A2A2"/>
<path d="M38.0616 18.4123H27.5622C26.8272 18.4123 26.2497 17.8369 26.2497 17.1046C26.2497 16.3723 26.8272 15.7969 27.5622 15.7969H38.0616C38.7966 15.7969 39.374 16.3723 39.374 17.1046C39.374 17.8369 38.7966 18.4123 38.0616 18.4123Z" fill="#998989"/>
</svg>
